<svg xmlns="http://www.w3.org/2000/svg" viewBox="0 0 128 128" width="128" height="128" aria-label="YummyBites">
  <defs>
    <linearGradient id="yb-badge" x1="0" y1="0" x2="1" y2="1">
      <stop offset="0" stop-color="#06b6d4"/>
      <stop offset="1" stop-color="#6366f1"/>
    </linearGradient>
    <linearGradient id="yb-shine" x1="0" y1="0" x2="0" y2="1">
      <stop offset="0" stop-color="#ffffff" stop-opacity="0.7"/>
      <stop offset="1" stop-color="#ffffff" stop-opacity="0"/>
    </linearGradient>
  </defs>
  <circle cx="64" cy="64" r="56" fill="url(#yb-badge)"/>
  <ellipse cx="64" cy="38" rx="40" ry="18" fill="url(#yb-shine)"/>
  <!-- Spoon -->
  <g fill="#fff" transform="translate(0,-2)">
    <path d="M46 44 c0 -8 6 -14 12 -14 c6 0 12 6 12 14 c0 6 -4 10 -8 12 v22 c0 2 -2 4 -4 4 s -4 -2 -4 -4 V56 c-4 -2 -8 -6 -8 -12z" opacity="0.95"/>
  </g>
  <!-- Fork -->
  <g fill="#fff" transform="rotate(-25 64 64)">
    <rect x="60" y="36" width="8" height="40" rx="3"/>
    <rect x="58" y="28" width="2" height="10" rx="1"/>
    <rect x="62" y="28" width="2" height="10" rx="1"/>
    <rect x="66" y="28" width="2" height="10" rx="1"/>
  </g>
</svg>

